<svg xmlns="http://www.w3.org/2000/svg" viewBox="0 0 32 32" role="img" aria-label="Smart Shaadi">
  <rect width="32" height="32" rx="7" fill="#7B2D42"/>
  <path d="M6.5 14 Q16 4.5 25.5 14" fill="none" stroke="#C5A47E" stroke-width="2.1" stroke-linecap="round"/>
  <circle cx="10.4" cy="8.4" r="0.9" fill="#D4B896"/>
  <circle cx="21.6" cy="8.4" r="0.9" fill="#D4B896"/>
  <rect x="5.3" y="13.4" width="2.5" height="9" rx="1.25" fill="#C5A47E"/>
  <rect x="24.2" y="13.4" width="2.5" height="9" rx="1.25" fill="#C5A47E"/>
  <rect x="4.5" y="21.6" width="23" height="2.6" rx="1.3" fill="#C5A47E"/>
  <path d="M11.7 18.6 C 12.9 21.4, 19.1 21.4, 20.3 18.6 Z" fill="#C5A47E"/>
  <path d="M16 9.4 C 19.6 12.8, 18.7 16.4, 16 18.4 C 13.3 16.4, 12.4 12.8, 16 9.4 Z" fill="#E9C9A0"/>
  <path d="M16 12.4 C 17.9 14.2, 17.4 16.2, 16 17.6 C 14.6 16.2, 14.1 14.2, 16 12.4 Z" fill="#0E7C7B"/>
</svg>
